<svg xmlns="http://www.w3.org/2000/svg" width="390" height="844" viewBox="0 0 390 844" font-family="system-ui, -apple-system, sans-serif">
  <rect width="390" height="844" fill="#ffffff"/>

  <!-- Status bar -->
  <text x="20" y="22" fill="#000" font-size="13" font-weight="600">9:41</text>
  <text x="350" y="22" fill="#000" font-size="11">●●●</text>

  <!-- Header bar -->
  <rect y="32" width="390" height="52" fill="#f5f5f5"/>
  <text x="36" y="63" fill="#555" font-size="13">← Back</text>
  <text x="195" y="63" text-anchor="middle" fill="#000" font-size="13" font-weight="600">Book 30 min with Alex Kim</text>

  <!-- Month nav -->
  <text x="195" y="118" text-anchor="middle" fill="#000" font-size="18" font-weight="700">June 2026</text>
  <text x="28" y="118" fill="#555" font-size="22" font-weight="300">‹</text>
  <text x="360" y="118" fill="#555" font-size="22" font-weight="300">›</text>

  <line x1="16" y1="132" x2="374" y2="132" stroke="#f0f0f0" stroke-width="1"/>

  <!-- Day headers — 7 cols across 390px, col width = ~54px, start x=28 -->
  <text x="28"  y="154" text-anchor="middle" fill="#999" font-size="11" font-weight="600">S</text>
  <text x="82"  y="154" text-anchor="middle" fill="#999" font-size="11" font-weight="600">M</text>
  <text x="136" y="154" text-anchor="middle" fill="#999" font-size="11" font-weight="600">T</text>
  <text x="190" y="154" text-anchor="middle" fill="#999" font-size="11" font-weight="600">W</text>
  <text x="244" y="154" text-anchor="middle" fill="#999" font-size="11" font-weight="600">T</text>
  <text x="298" y="154" text-anchor="middle" fill="#999" font-size="11" font-weight="600">F</text>
  <text x="352" y="154" text-anchor="middle" fill="#999" font-size="11" font-weight="600">S</text>

  <!-- Row height ~62px, first row y=200 -->

  <!-- Week 1 -->
  <text x="82"  y="200" text-anchor="middle" fill="#ccc" font-size="14">1</text>
  <line x1="68" y1="200" x2="96" y2="200" stroke="#e0e0e0" stroke-width="1"/>
  <text x="136" y="200" text-anchor="middle" fill="#ccc" font-size="14">2</text>
  <line x1="122" y1="200" x2="150" y2="200" stroke="#e0e0e0" stroke-width="1"/>
  <text x="190" y="200" text-anchor="middle" fill="#000" font-size="14" font-weight="500">3</text>
  <text x="244" y="200" text-anchor="middle" fill="#000" font-size="14" font-weight="500">4</text>
  <text x="298" y="200" text-anchor="middle" fill="#000" font-size="14" font-weight="500">5</text>
  <text x="352" y="200" text-anchor="middle" fill="#ccc" font-size="14">6</text>
  <line x1="338" y1="200" x2="366" y2="200" stroke="#e0e0e0" stroke-width="1"/>

  <!-- Week 2 -->
  <text x="28"  y="262" text-anchor="middle" fill="#ccc" font-size="14">7</text>
  <line x1="14" y1="262" x2="42" y2="262" stroke="#e0e0e0" stroke-width="1"/>
  <text x="82"  y="262" text-anchor="middle" fill="#000" font-size="14" font-weight="500">8</text>
  <text x="136" y="262" text-anchor="middle" fill="#000" font-size="14" font-weight="500">9</text>
  <text x="190" y="262" text-anchor="middle" fill="#000" font-size="14" font-weight="500">10</text>
  <text x="244" y="262" text-anchor="middle" fill="#000" font-size="14" font-weight="500">11</text>
  <text x="298" y="262" text-anchor="middle" fill="#ccc" font-size="14">12</text>
  <line x1="284" y1="262" x2="312" y2="262" stroke="#e0e0e0" stroke-width="1"/>
  <text x="352" y="262" text-anchor="middle" fill="#ccc" font-size="14">13</text>
  <line x1="338" y1="262" x2="366" y2="262" stroke="#e0e0e0" stroke-width="1"/>

  <!-- Week 3 — 15 selected -->
  <text x="28"  y="324" text-anchor="middle" fill="#ccc" font-size="14">14</text>
  <line x1="14" y1="324" x2="42" y2="324" stroke="#e0e0e0" stroke-width="1"/>
  <circle cx="82" cy="318" r="18" fill="#000"/>
  <text x="82"  y="324" text-anchor="middle" fill="#fff" font-size="14" font-weight="600">15</text>
  <text x="136" y="324" text-anchor="middle" fill="#000" font-size="14" font-weight="500">16</text>
  <text x="190" y="324" text-anchor="middle" fill="#000" font-size="14" font-weight="500">17</text>
  <text x="244" y="324" text-anchor="middle" fill="#000" font-size="14" font-weight="500">18</text>
  <text x="298" y="324" text-anchor="middle" fill="#000" font-size="14" font-weight="500">19</text>
  <text x="352" y="324" text-anchor="middle" fill="#ccc" font-size="14">20</text>
  <line x1="338" y1="324" x2="366" y2="324" stroke="#e0e0e0" stroke-width="1"/>

  <!-- Week 4 -->
  <text x="28"  y="386" text-anchor="middle" fill="#ccc" font-size="14">21</text>
  <line x1="14" y1="386" x2="42" y2="386" stroke="#e0e0e0" stroke-width="1"/>
  <text x="82"  y="386" text-anchor="middle" fill="#000" font-size="14" font-weight="500">22</text>
  <text x="136" y="386" text-anchor="middle" fill="#000" font-size="14" font-weight="500">23</text>
  <text x="190" y="386" text-anchor="middle" fill="#000" font-size="14" font-weight="500">24</text>
  <text x="244" y="386" text-anchor="middle" fill="#000" font-size="14" font-weight="500">25</text>
  <text x="298" y="386" text-anchor="middle" fill="#ccc" font-size="14">26</text>
  <line x1="284" y1="386" x2="312" y2="386" stroke="#e0e0e0" stroke-width="1"/>
  <text x="352" y="386" text-anchor="middle" fill="#ccc" font-size="14">27</text>
  <line x1="338" y1="386" x2="366" y2="386" stroke="#e0e0e0" stroke-width="1"/>

  <!-- Week 5 -->
  <text x="28"  y="448" text-anchor="middle" fill="#ccc" font-size="14">28</text>
  <line x1="14" y1="448" x2="42" y2="448" stroke="#e0e0e0" stroke-width="1"/>
  <text x="82"  y="448" text-anchor="middle" fill="#000" font-size="14" font-weight="500">29</text>
  <text x="136" y="448" text-anchor="middle" fill="#000" font-size="14" font-weight="500">30</text>

  <!-- Timezone -->
  <text x="195" y="498" text-anchor="middle" fill="#bbb" font-size="11">Timezone: UTC+5:30</text>

  <!-- Footer -->
  <text x="195" y="820" text-anchor="middle" fill="#bbb" font-size="11">Powered by Formstr</text>
</svg>
