<svg xmlns="http://www.w3.org/2000/svg" width="1440" height="900" viewBox="0 0 1440 900" font-family="system-ui, -apple-system, sans-serif">
  <rect width="1440" height="900" fill="#ffffff"/>

  <!-- Top summary bar -->
  <rect width="1440" height="56" fill="#f5f5f5"/>
  <text x="40" y="34" fill="#555" font-size="13">← Back</text>
  <text x="720" y="34" text-anchor="middle" fill="#000" font-size="14" font-weight="600">Book 30 min with Alex Kim</text>
  <text x="1400" y="34" text-anchor="end" fill="#999" font-size="13">Step 3 of 4</text>

  <!-- Date strip label -->
  <text x="720" y="100" text-anchor="middle" fill="#999" font-size="12" font-weight="600" letter-spacing="1">SELECT A DATE</text>

  <!-- 5-date strip: Jun 13, 14, [15], 16, 17 -->
  <!-- Col width = 120, gap = 16, total = 5×120 + 4×16 = 664, centered: start x = (1440-664)/2 = 388 -->

  <!-- Jun 13 (Sun) - not selected -->
  <rect x="388" y="116" width="112" height="80" rx="8" fill="#fff" stroke="#e0e0e0" stroke-width="1.5"/>
  <text x="444" y="142" text-anchor="middle" fill="#999" font-size="11">SUN</text>
  <text x="444" y="170" text-anchor="middle" fill="#555" font-size="22" font-weight="500">13</text>

  <!-- Jun 14 (Mon) - not selected -->
  <rect x="516" y="116" width="112" height="80" rx="8" fill="#fff" stroke="#e0e0e0" stroke-width="1.5"/>
  <text x="572" y="142" text-anchor="middle" fill="#999" font-size="11">MON</text>
  <text x="572" y="170" text-anchor="middle" fill="#555" font-size="22" font-weight="500">14</text>

  <!-- Jun 15 (Tue) - SELECTED -->
  <rect x="644" y="108" width="112" height="96" rx="8" fill="#000"/>
  <text x="700" y="136" text-anchor="middle" fill="rgba(255,255,255,0.6)" font-size="11">TUE</text>
  <text x="700" y="168" text-anchor="middle" fill="#fff" font-size="26" font-weight="700">15</text>
  <text x="700" y="188" text-anchor="middle" fill="rgba(255,255,255,0.5)" font-size="10">Jun</text>

  <!-- Jun 16 (Wed) - not selected -->
  <rect x="772" y="116" width="112" height="80" rx="8" fill="#fff" stroke="#e0e0e0" stroke-width="1.5"/>
  <text x="828" y="142" text-anchor="middle" fill="#999" font-size="11">WED</text>
  <text x="828" y="170" text-anchor="middle" fill="#555" font-size="22" font-weight="500">16</text>

  <!-- Jun 17 (Thu) - not selected -->
  <rect x="900" y="116" width="112" height="80" rx="8" fill="#fff" stroke="#e0e0e0" stroke-width="1.5"/>
  <text x="956" y="142" text-anchor="middle" fill="#999" font-size="11">THU</text>
  <text x="956" y="170" text-anchor="middle" fill="#555" font-size="22" font-weight="500">17</text>

  <!-- Time slots label -->
  <text x="720" y="244" text-anchor="middle" fill="#999" font-size="12" font-weight="600" letter-spacing="1">AVAILABLE TIMES · TUE, JUN 15</text>

  <!-- Divider -->
  <line x1="400" y1="258" x2="1040" y2="258" stroke="#f0f0f0" stroke-width="1"/>

  <!-- Time slots - 2 columns -->
  <!-- Left col x=400, Right col x=736 -->
  <!-- Each slot: height 52, gap 12 -->

  <!-- Left column -->
  <rect x="400" y="272" width="320" height="52" rx="6" fill="#fff" stroke="#e0e0e0" stroke-width="1.5"/>
  <text x="560" y="304" text-anchor="middle" fill="#000" font-size="15" font-weight="500">9:00 AM</text>

  <rect x="400" y="336" width="320" height="52" rx="6" fill="#fff" stroke="#e0e0e0" stroke-width="1.5"/>
  <text x="560" y="368" text-anchor="middle" fill="#000" font-size="15" font-weight="500">9:30 AM</text>

  <rect x="400" y="400" width="320" height="52" rx="6" fill="#fff" stroke="#e0e0e0" stroke-width="1.5"/>
  <text x="560" y="432" text-anchor="middle" fill="#000" font-size="15" font-weight="500">10:00 AM</text>

  <rect x="400" y="464" width="320" height="52" rx="6" fill="#fff" stroke="#e0e0e0" stroke-width="1.5"/>
  <text x="560" y="496" text-anchor="middle" fill="#000" font-size="15" font-weight="500">10:30 AM</text>

  <rect x="400" y="528" width="320" height="52" rx="6" fill="#fff" stroke="#e0e0e0" stroke-width="1.5"/>
  <text x="560" y="560" text-anchor="middle" fill="#000" font-size="15" font-weight="500">11:00 AM</text>

  <rect x="400" y="592" width="320" height="52" rx="6" fill="#fff" stroke="#e0e0e0" stroke-width="1.5"/>
  <text x="560" y="624" text-anchor="middle" fill="#000" font-size="15" font-weight="500">11:30 AM</text>

  <!-- Right column -->
  <rect x="736" y="272" width="320" height="52" rx="6" fill="#000"/>
  <text x="896" y="304" text-anchor="middle" fill="#fff" font-size="15" font-weight="600">2:00 PM</text>

  <rect x="736" y="336" width="320" height="52" rx="6" fill="#fff" stroke="#e0e0e0" stroke-width="1.5"/>
  <text x="896" y="368" text-anchor="middle" fill="#000" font-size="15" font-weight="500">2:30 PM</text>

  <rect x="736" y="400" width="320" height="52" rx="6" fill="#fff" stroke="#e0e0e0" stroke-width="1.5"/>
  <text x="896" y="432" text-anchor="middle" fill="#000" font-size="15" font-weight="500">3:00 PM</text>

  <rect x="736" y="464" width="320" height="52" rx="6" fill="#fff" stroke="#e0e0e0" stroke-width="1.5"/>
  <text x="896" y="496" text-anchor="middle" fill="#000" font-size="15" font-weight="500">3:30 PM</text>

  <rect x="736" y="528" width="320" height="52" rx="6" fill="#fff" stroke="#e0e0e0" stroke-width="1.5"/>
  <text x="896" y="560" text-anchor="middle" fill="#000" font-size="15" font-weight="500">4:00 PM</text>

  <rect x="736" y="592" width="320" height="52" rx="6" fill="#fff" stroke="#e0e0e0" stroke-width="1.5"/>
  <text x="896" y="624" text-anchor="middle" fill="#000" font-size="15" font-weight="500">4:30 PM</text>

  <!-- Selected indicator for 2:00 PM -->
  <text x="1040" y="304" fill="#555" font-size="12">← selected</text>

  <!-- Timezone -->
  <text x="720" y="682" text-anchor="middle" fill="#bbb" font-size="12">Timezone: UTC+5:30 (India Standard Time)</text>

  <!-- Footer -->
  <text x="720" y="874" text-anchor="middle" fill="#bbb" font-size="12">Powered by Formstr</text>
</svg>
